With: Natasha Richardson, Martin Landau en Anne Bancroft

Ruth Gruber is een Amerikaans-Joodse medewerkster van Binnenlandse Zaken die tijdens de Tweede Wereldoorlog 1000 vluchtelingen vergezelt op een reis over de Atlantische Oceaan naar een veilige haven in Amerika. Als ze eindelijk, na een turbulente en zeer gevaarlijke reis aankomen op de plaats van bestemming, blijkt hun onderkomen een angstwekkende gelijkenis te hebben met de concentratiekampen die ze net verlaten hebben.

This is the true story of a woman named Ruth Gruber who travels to Europe to help escort 1000 Jewish War victims to the United States...

------------------------ Dutch Friends ------------------------
---------------------------------------------------------------
- Bezoek ook eens mijn vrienden op:  http://www.Film-Test.nl --
----- voor mijn Nederlandse Sync. ondertitels ---- en meer ----
------- http://www.Film-Test.nl ---- voor Films en meer -------
---------------------------------------------------------------

General:

Complete name                    : HavenHaven.avi
Format                           : AVI
Format/Info                      : Audio Video Interleave
File size                        : 2.45 GiB
Duration                         : 2h 55mn
Overall bit rate                 : 1 997 Kbps

Video:

Format                           : MPEG-4 Visual
Format profile                   : Simple@L3
Format settings, BVOP            : No
Format settings, QPel            : No
Format settings, GMC             : No warppoints
Format settings, Matrix          : Default (H.263)
Codec ID                         : XVID
Codec ID/Hint                    : XviD
Duration                         : 2h 55mn
Bit rate                         : 1 794 Kbps
Width                            : 704 pixels
Height                           : 396 pixels
Display aspect ratio             : 16:9
Frame rate                       : 25.000 fps
Color space                      : YUV
Chroma subsampling               : 4:2:0
Bit depth                        : 8 bits
Scan type                        : Progressive
Compression mode                 : Lossy
Bits/(Pixel*Frame)               : 0.257
Stream size                      : 2.20 GiB (90%)
Writing library                  : XviD 1.1.2 (UTC 2006-11-01)

Audio:

Format                           : AC-3
Format/Info                      : Audio Coding 3
Mode extension                   : CM (complete main)
Codec ID                         : 2000
Duration                         : 2h 55mn
Bit rate mode                    : Constant
Bit rate                         : 192 Kbps
Channel(s)                       : 2 channels
Channel positions                : Front: L R
Sampling rate                    : 48.0 KHz
Bit depth                        : 16 bits
Compression mode                 : Lossy
Stream size                      : 241 MiB (10%)
Alignment                        : Aligned on interleaves
Interleave, duration             : 32 ms (0.80 video frame)
Interleave, preload duration     : 128 ms

